<?xml version="1.0" encoding="UTF-8" standalone="no"?>
<!DOCTYPE svg PUBLIC "-//W3C//DTD SVG 1.1//EN" "http://www.w3.org/Graphics/SVG/1.1/DTD/svg11.dtd">
<svg version="1.1" xmlns="http://www.w3.org/2000/svg" xmlns:xlink="http://www.w3.org/1999/xlink" preserveAspectRatio="xMidYMid meet" viewBox="0 0 640 640" width="640" height="640"><defs><path d="M600 340L340 340L340 600L300 600L300 600L300 600L300 340L40 340L40 340L40 340L40 300L300 300L300 340L600 340L600 340L600 340ZM600 340L300 340L300 300L300 300L300 40L340 40L340 300L600 300L600 300L600 340Z" id="dF3HaV84V"></path><path d="M620 280L580 280L580 360L620 360L620 280Z" id="f6xtkZQi8k"></path><path d="M280 580L280 620L360 620L360 580L280 580Z" id="b1GGIwDdcI"></path><path d="M197.5 520L167.5 520L167.5 120L197.5 120L197.5 520Z" id="b1FG5uUxq"></path><path d="M442.5 520L472.5 520L472.5 120L442.5 120L442.5 120L442.5 520Z" id="b1T5rMOulH"></path><path d="M60 280L20 280L20 360L60 360L60 280Z" id="b56YPKZ4x"></path><path d="M520 167.5L520 197.5L120 197.5L120 167.5L520 167.5Z" id="bGBaPExIL"></path><path d="M520 442.5L520 472.5L120 472.5L120 442.5L520 442.5Z" id="e1awbKPIPd"></path><path d="M280 20L280 60L360 60L360 20L280 20Z" id="biXNY5U3l"></path><path d="M452.5 177.5L452.5 130L462.5 130L462.5 177.5L510 177.5L510 187.5L462.5 187.5L462.5 310L590 310L590 290L610 290L610 350L590 350L590 330L462.5 330L462.5 452.5L510 452.5L510 462.5L462.5 462.5L462.5 510L452.5 510L452.5 462.5L330 462.5L330 590L350 590L350 610L290 610L290 590L310 590L310 462.5L187.5 462.5L187.5 510L177.5 510L177.5 462.5L130 462.5L130 452.5L177.5 452.5L177.5 330L50 330L50 350L30 350L30 290L50 290L50 310L177.5 310L177.5 187.5L130 187.5L130 177.5L177.5 177.5L177.5 130L187.5 130L187.5 177.5L310 177.5L310 50L290 50L290 30L350 30L350 50L330 50L330 177.5L330 177.5L452.5 177.5ZM310 330L187.5 330L187.5 452.5L310 452.5L310 452.5L310 330ZM452.5 330L330 330L330 452.5L452.5 452.5L452.5 452.5L452.5 330ZM310 187.5L187.5 187.5L187.5 310L310 310L310 310L310 187.5ZM452.5 187.5L330 187.5L330 310L452.5 310L452.5 310L452.5 187.5Z" id="c4EoM2VJ1U"></path></defs><g><g><g><use xlink:href="#dF3HaV84V" opacity="1" fill="#ffffff" fill-opacity="1"></use></g><g><use xlink:href="#f6xtkZQi8k" opacity="1" fill="#ffffff" fill-opacity="1"></use></g><g><use xlink:href="#b1GGIwDdcI" opacity="1" fill="#ffffff" fill-opacity="1"></use></g><g><use xlink:href="#b1FG5uUxq" opacity="1" fill="#ffffff" fill-opacity="1"></use></g><g><use xlink:href="#b1T5rMOulH" opacity="1" fill="#ffffff" fill-opacity="1"></use></g><g><use xlink:href="#b56YPKZ4x" opacity="1" fill="#ffffff" fill-opacity="1"></use></g><g><use xlink:href="#bGBaPExIL" opacity="1" fill="#ffffff" fill-opacity="1"></use></g><g><use xlink:href="#e1awbKPIPd" opacity="1" fill="#ffffff" fill-opacity="1"></use></g><g><use xlink:href="#biXNY5U3l" opacity="1" fill="#ffffff" fill-opacity="1"></use></g><g><use xlink:href="#c4EoM2VJ1U" opacity="1" fill="#ffffff" fill-opacity="1"></use></g></g></g></svg>